<?xml version="1.0" ?><!DOCTYPE svg  PUBLIC '-//W3C//DTD SVG 1.1//EN'  'http://www.w3.org/Graphics/SVG/1.1/DTD/svg11.dtd'><svg enable-background="new 0 0 24 24" height="24px" id="Layer_1" version="1.1" viewBox="0 0 24 24" width="24px" xml:space="preserve" xmlns="http://www.w3.org/2000/svg" xmlns:xlink="http://www.w3.org/1999/xlink"><path d="M12,4.168C7.943-2.045,0,2.029,0,7.758c0,4.418,6.904,8.224,12,15.188c5.096-6.964,12-10.77,12-15.188  C24,2.029,16.309-2.045,12,4.168 M12,18.867c-1.564-1.811-3.195-3.404-4.633-4.814C4.77,11.512,2.545,9.334,2.545,7.758  c0-2.379,2.217-4.156,4.195-4.156c1.225,0,2.275,0.658,3.127,1.959l2.07,3.169l2.158-3.11c0.914-1.32,2.045-2.018,3.275-2.018  c1.928,0,4.084,1.777,4.084,4.156c0,1.576-2.225,3.754-4.803,6.273C15.195,15.463,13.563,17.057,12,18.867"/></svg>